<svg preserveAspectRatio="none" width="100%" height="100%" overflow="visible" style="display: block;" viewBox="0 0 22 22" fill="none" xmlns="http://www.w3.org/2000/svg">
<g id="Simplification" clip-path="url(#clip0_0_23)">
<path id="Vector" d="M1.49585 0.9104C1.52767 0.925293 1.5595 0.940186 1.59229 0.95553C1.66466 0.989443 1.7369 1.02366 1.80901 1.05813C1.95035 1.12513 2.09246 1.19029 2.23471 1.25533C2.34115 1.30412 2.44755 1.35299 2.55396 1.40186C2.60432 1.42496 2.65469 1.44807 2.70658 1.47188C3.36866 1.77887 3.92852 2.06307 4.25391 2.75C4.44306 3.27337 4.56299 3.81512 4.68544 4.35696C4.70615 4.44767 4.72689 4.53837 4.74764 4.62907C4.79204 4.82327 4.83626 5.01752 4.88035 5.2118C4.95025 5.51979 5.02059 5.82767 5.09098 6.13555C5.30844 7.08736 5.52467 8.03945 5.73993 8.99176C5.80488 9.2791 5.86987 9.56643 5.93499 9.85374C5.94132 9.88166 5.94765 9.90958 5.95417 9.93835C5.98578 10.0778 6.01741 10.2173 6.04904 10.3568C6.12317 10.6837 6.19693 11.0108 6.27042 11.3379C6.31621 11.5415 6.36232 11.7449 6.4085 11.9483C6.42991 12.0429 6.45119 12.1376 6.47233 12.2322C6.50121 12.3615 6.53055 12.4907 6.56001 12.6198C6.56831 12.6575 6.57661 12.6952 6.58516 12.734C6.64297 12.9843 6.69489 13.1716 6.91797 13.3203C7.00762 13.3332 7.00762 13.3332 7.10771 13.3311C7.14675 13.3314 7.18579 13.3316 7.22601 13.3318C7.26896 13.3316 7.3119 13.3314 7.35615 13.3312C7.42452 13.3314 7.42452 13.3314 7.49427 13.3316C7.64776 13.332 7.80125 13.3317 7.95474 13.3314C8.06447 13.3315 8.17421 13.3317 8.28395 13.3319C8.55154 13.3322 8.81914 13.3322 9.08673 13.3319C9.30422 13.3317 9.5217 13.3317 9.73918 13.3318C9.77011 13.3318 9.80103 13.3318 9.8329 13.3319C9.89572 13.3319 9.95854 13.3319 10.0214 13.3319C10.6109 13.3322 11.2004 13.3319 11.7899 13.3314C12.2958 13.3311 12.8017 13.3311 13.3076 13.3315C13.8948 13.332 14.482 13.3322 15.0693 13.3319C15.1319 13.3319 15.1945 13.3318 15.2571 13.3318C15.2879 13.3318 15.3188 13.3318 15.3505 13.3318C15.5677 13.3317 15.7849 13.3318 16.0021 13.332C16.2945 13.3323 16.5868 13.3321 16.8792 13.3316C16.9866 13.3315 17.0941 13.3315 17.2015 13.3317C17.3479 13.3319 17.4943 13.3317 17.6407 13.3312C17.7049 13.3315 17.7049 13.3315 17.7703 13.3318C18.0506 13.3365 18.0506 13.3365 18.3047 13.2344C18.3546 13.1391 18.3546 13.1391 18.3752 13.0236C18.3851 12.9809 18.395 12.9383 18.4052 12.8944C18.4193 12.8287 18.4193 12.8287 18.4336 12.7617C18.4528 12.6821 18.4722 12.6026 18.4916 12.523C18.5115 12.4378 18.5314 12.3527 18.5512 12.2675C18.5622 12.2204 18.5732 12.1734 18.5845 12.1249C18.6207 11.97 18.6567 11.8151 18.6927 11.6601C18.7184 11.5502 18.7441 11.4402 18.7697 11.3302C18.8237 11.0989 18.8776 10.8677 18.9314 10.6364C18.9856 10.4036 19.0398 10.1708 19.0941 9.93809C19.1007 9.90984 19.1073 9.88159 19.1141 9.85248C19.1207 9.82429 19.1272 9.79609 19.134 9.76703C19.2647 9.207 19.395 8.64689 19.5249 8.08668C19.5983 7.77064 19.6719 7.45469 19.7459 7.1388C19.791 6.94618 19.8358 6.7535 19.8805 6.5608C19.9013 6.47176 19.9221 6.38276 19.9431 6.29378C19.9716 6.17238 19.9998 6.0509 20.0279 5.92938C20.0362 5.89433 20.0446 5.85928 20.0532 5.82316C20.1077 5.58447 20.1586 5.35288 20.0557 5.12134C19.9744 5.01971 19.928 4.9888 19.8086 4.94141C19.7019 4.92858 19.7019 4.92858 19.5851 4.93052C19.5396 4.93028 19.4941 4.93004 19.4472 4.92979C19.3724 4.93005 19.3724 4.93005 19.296 4.93031C19.2429 4.93015 19.1898 4.92999 19.1351 4.92983C18.9878 4.92947 18.8404 4.9295 18.693 4.92969C18.534 4.9298 18.3751 4.92941 18.2162 4.92907C17.9407 4.92855 17.6652 4.92833 17.3898 4.9283C16.9911 4.92825 16.5924 4.9276 16.1938 4.92678C15.5465 4.92545 14.8992 4.92441 14.252 4.92365C14.1938 4.92358 14.1938 4.92358 14.1345 4.92351C13.7024 4.923 13.2702 4.92256 12.838 4.9222C12.6814 4.92207 12.5247 4.92193 12.3681 4.9218C12.3101 4.92175 12.3101 4.92175 12.251 4.9217C11.6063 4.92114 10.9617 4.92008 10.3171 4.91863C9.91951 4.91776 9.52192 4.91732 9.12433 4.91743C8.8518 4.91747 8.57927 4.91706 8.30674 4.91628C8.14953 4.91585 7.99233 4.91563 7.83512 4.91597C7.66458 4.91634 7.49405 4.91571 7.32352 4.91499C7.27398 4.91526 7.22444 4.91553 7.17339 4.9158C6.86486 4.91343 6.5956 4.89469 6.34897 4.6893C6.14499 4.43847 6.03563 4.2572 6.0455 3.92744C6.074 3.70272 6.1491 3.51559 6.31389 3.35744C6.51654 3.20106 6.66736 3.13145 6.92613 3.13095C6.97259 3.13076 7.01905 3.13057 7.06692 3.13037C7.11816 3.13038 7.1694 3.13039 7.22219 3.13039C7.27648 3.13024 7.33076 3.13008 7.38669 3.12992C7.53768 3.12949 7.68868 3.12933 7.83967 3.12921C8.00242 3.12904 8.16516 3.12863 8.32791 3.12826C8.72119 3.12741 9.11448 3.12698 9.50776 3.12659C9.69303 3.12641 9.87831 3.12617 10.0636 3.12595C10.6797 3.12522 11.2958 3.1246 11.9118 3.12428C12.0717 3.1242 12.2317 3.12412 12.3916 3.12404C12.4313 3.12402 12.4711 3.12399 12.512 3.12397C13.1553 3.12362 13.7986 3.12253 14.4418 3.12113C15.1025 3.11971 15.7632 3.11894 16.4239 3.1188C16.7948 3.11871 17.1656 3.11833 17.5365 3.11723C17.8524 3.1163 18.1684 3.11596 18.4844 3.11637C18.6454 3.11657 18.8065 3.11649 18.9676 3.11565C19.1426 3.11475 19.3177 3.1152 19.4928 3.11576C19.5682 3.11505 19.5682 3.11505 19.6451 3.11433C20.2971 3.11938 20.832 3.34827 21.3044 3.79468C21.7618 4.27897 21.9523 4.85001 21.9348 5.51286C21.9032 6.02316 21.7569 6.5247 21.6371 7.02031C21.5964 7.18937 21.5568 7.35867 21.517 7.52794C21.4648 7.74978 21.4125 7.97159 21.3598 8.1933C21.2198 8.7821 21.0826 9.37152 20.9465 9.96123C20.8768 10.2634 20.8068 10.5656 20.7369 10.8678C20.6794 11.1165 20.6219 11.3653 20.5645 11.6141C20.5099 11.8506 20.455 12.0871 20.4 12.3234C20.3796 12.4109 20.3594 12.4984 20.3393 12.5859C20.136 13.4683 19.9485 14.2694 19.1587 14.8108C18.5354 15.1777 17.9281 15.1497 17.2242 15.1472C17.1103 15.1475 16.9964 15.1478 16.8825 15.1482C16.6063 15.1489 16.3301 15.1488 16.0538 15.1483C15.8292 15.1479 15.6045 15.1478 15.3799 15.148C15.3317 15.148 15.3317 15.148 15.2827 15.1481C15.2175 15.1481 15.1523 15.1482 15.0871 15.1482C14.4771 15.1487 13.867 15.1482 13.257 15.1473C12.7345 15.1465 12.2121 15.1466 11.6897 15.1474C11.0817 15.1483 10.4737 15.1487 9.86573 15.1482C9.80079 15.1481 9.73585 15.1481 9.67091 15.148C9.63897 15.148 9.60703 15.1479 9.57412 15.1479C9.34995 15.1478 9.12579 15.148 8.90163 15.1484C8.62813 15.1489 8.35463 15.1488 8.08113 15.1479C7.94181 15.1474 7.80251 15.1473 7.6632 15.1478C6.79488 15.1505 6.14444 15.0869 5.47046 14.4832C4.9287 13.889 4.80582 13.0955 4.63835 12.3367C4.60079 12.1675 4.56218 11.9985 4.52368 11.8295C4.45575 11.5308 4.38844 11.2319 4.32144 10.933C4.20348 10.4069 4.08347 9.88123 3.96336 9.35561C3.92057 9.16825 3.87779 8.98089 3.83501 8.79353C3.82437 8.74692 3.81373 8.70032 3.80277 8.6523C3.68611 8.14134 3.56979 7.63029 3.45361 7.11922C3.44353 7.07487 3.43345 7.03053 3.42306 6.98484C3.30164 6.45065 3.18079 5.91634 3.06081 5.38182C3.01556 5.18037 2.97009 4.97897 2.92466 4.77757C2.89076 4.62679 2.85724 4.47594 2.82373 4.32507C2.80387 4.23695 2.784 4.14883 2.7641 4.06071C2.75148 4.00304 2.75148 4.00304 2.73861 3.9442C2.67313 3.60389 2.67313 3.60389 2.46418 3.34483C2.37229 3.2948 2.27921 3.25153 2.18352 3.20923C2.14868 3.19304 2.11384 3.17685 2.07795 3.16016C1.96661 3.10861 1.8548 3.05819 1.74292 3.00781C1.66917 2.97398 1.59546 2.94008 1.52178 2.9061C1.4142 2.85651 1.3066 2.80697 1.19889 2.75764C0.27923 2.33628 0.27923 2.33628 0.124878 2.00443C0.0388 1.75287 0.0451632 1.47284 0.155762 1.22998C0.274406 1.02611 0.421334 0.903377 0.636475 0.802978C0.956418 0.733971 1.2046 0.767366 1.49585 0.9104Z" fill="var(--fill-0, #231F20)"/>
<path id="Vector_2" d="M10.0376 17.2308C10.5111 17.6414 10.8326 18.0984 10.9141 18.7344C10.9578 19.3814 10.8167 19.9657 10.3877 20.4612C9.9585 20.9116 9.48494 21.1925 8.85123 21.2353C8.18162 21.2454 7.63393 21.0626 7.14658 20.5981C6.68769 20.1284 6.47657 19.6003 6.47769 18.9435C6.48706 18.4123 6.69668 17.8579 7.06366 17.4673C7.87849 16.7019 9.12114 16.5235 10.0376 17.2308ZM8.01015 18.6082C7.88653 18.7771 7.88068 18.9624 7.90625 19.1641C8.00091 19.4583 8.16985 19.6332 8.44067 19.7791C8.69634 19.8476 8.88784 19.8161 9.11542 19.6913C9.30378 19.5627 9.43665 19.3856 9.49609 19.1641C9.52505 18.9082 9.46896 18.7274 9.32422 18.5195C9.17269 18.3604 9.03307 18.2325 8.80641 18.21C8.43096 18.2022 8.25062 18.3279 8.01015 18.6082Z" fill="var(--fill-0, #231F20)"/>
<path id="Vector_3" d="M17.6172 17.1875C18.0683 17.5166 18.3643 17.992 18.5016 18.532C18.6118 19.2469 18.45 19.8518 18.0376 20.4419C17.729 20.844 17.1953 21.1389 16.6986 21.216C16.0327 21.2785 15.4599 21.1633 14.9231 20.7507C14.4258 20.3248 14.1397 19.7905 14.0842 19.1374C14.0645 18.5467 14.2471 17.9958 14.6235 17.5386C15.4234 16.6984 16.6426 16.5426 17.6172 17.1875ZM15.689 18.5142C15.5309 18.7467 15.4918 18.9246 15.5315 19.1995C15.5903 19.4366 15.7452 19.5887 15.9414 19.7227C16.1164 19.8148 16.2606 19.8255 16.457 19.8086C16.7329 19.7182 16.8918 19.5876 17.0505 19.3467C17.1403 19.101 17.14 18.8789 17.0344 18.6377C16.9133 18.4209 16.7325 18.2963 16.5 18.2188C16.1713 18.1909 15.9148 18.2625 15.689 18.5142Z" fill="var(--fill-0, #231F20)"/>
</g>
<defs>
<clipPath id="clip0_0_23">
<rect width="22" height="22" fill="white"/>
</clipPath>
</defs>
</svg>
