<svg width="220" height="67" viewBox="0 0 220 67" fill="none" xmlns="http://www.w3.org/2000/svg" aria-hidden="true">
  <g clip-path="url(#somero-logo-clip)">
    <path d="M21.3508 17.3524L22.8516 10.9033C23.3781 8.6466 22.9697 7.35775 20.8488 7.35775C18.5361 7.35775 17.7193 8.6466 17.1928 10.9033C15.3869 18.6413 31.1873 20.9029 27.8805 35.0901C25.868 43.7317 20.3076 47.7316 11.3716 47.7316C4.5613 47.7316 -1.5207 45.4107 0.329491 37.4752L2.31254 28.9619H12.9806L11.1304 36.8974C10.5006 39.6084 11.155 40.3788 13.1479 40.3788C14.8849 40.3788 16.1545 39.6035 16.7893 36.8974C19.2102 26.5126 2.92762 26.32 6.38688 11.486C8.33056 3.16038 14.5307 0 22.7581 0C29.9571 0 35.4929 2.44929 33.7017 10.128L32.0189 17.3524H21.3508Z" fill="#231F20"/>
    <path d="M50.6931 37.1888C48.8036 45.2872 43.3317 47.5242 37.8894 47.5242C32.4471 47.5242 28.0136 45.2872 29.9031 37.1888L33.6527 21.0906C35.5423 12.9921 41.0141 10.7552 46.4564 10.7552C51.8987 10.7552 56.3323 12.9921 54.4476 21.0906L50.698 37.1888H50.6931ZM37.6779 39.0751C37.3432 40.517 37.4761 41.8553 39.2082 41.8553C40.9403 41.8553 41.6981 40.5121 42.0376 39.0751L46.668 19.1993C47.0026 17.7574 46.8697 16.4192 45.1376 16.4192C43.4056 16.4192 42.6478 17.7623 42.3132 19.1993L37.6828 39.0751H37.6779Z" fill="#231F20"/>
    <path d="M57.3558 46.8279H50.7719L59.014 11.4514H71.0944L68.7029 36.5912H68.8013L78.1261 11.4514H89.9604L81.7182 46.8279H74.2928L81.3344 16.6167H81.236L69.441 46.8279H62.2125L64.5006 16.6167H64.4022L57.3607 46.8279H57.3558Z" fill="#231F20"/>
    <path d="M84.0408 46.8279L92.283 11.4514H109.314L108.064 16.8191H99.2507L97.4448 24.5719H105.963L104.713 29.9396H96.1949L93.5082 41.4652H102.321L101.071 46.8329H84.0408V46.8279Z" fill="#231F20"/>
    <path d="M102.356 46.8279L110.598 11.4514H118.865C126.689 11.4514 131.157 12.2465 129.42 19.698C128.391 24.1226 125.886 27.0015 121.256 27.7471L121.231 27.8459C125.168 27.9446 127.151 29.4359 125.965 34.5024L124.238 41.9046C123.913 43.2972 123.677 45.381 124.332 46.823H116.065C115.41 45.381 115.701 43.2972 116.025 41.9046L117.772 34.4037C118.353 31.9198 117.157 30.6754 115.671 30.6754H114.333L110.568 46.823H102.351L102.356 46.8279ZM115.523 25.6089C119.234 25.6089 120.119 24.3695 120.897 21.0363C121.66 17.7574 121.404 16.513 117.644 16.513L115.523 25.604V25.6089Z" fill="#231F20"/>
    <path d="M148.817 37.1888C146.927 45.2872 141.456 47.5242 136.013 47.5242C130.571 47.5242 126.137 45.2872 128.027 37.1888L131.777 21.0906C133.666 12.9921 139.138 10.7552 144.58 10.7552C150.023 10.7552 154.456 12.9921 152.571 21.0906L148.822 37.1888H148.817ZM135.797 39.0751C135.462 40.517 135.595 41.8553 137.327 41.8553C139.059 41.8553 139.817 40.5121 140.157 39.0751L144.787 19.1993C145.122 17.7574 144.989 16.4192 143.257 16.4192C141.524 16.4192 140.767 17.7623 140.432 19.1993L135.802 39.0751H135.797Z" fill="#231F20"/>
    <path d="M6.85947 58.0028H3.06561L2.74576 59.7904H6.23454L5.9639 61.2965H2.47512L2.08146 63.4989H6.04756L5.77692 65.005H0.344452L1.86495 56.4967H7.12519L6.85455 58.0028H6.85947Z" fill="#231F20"/>
    <path d="M17.8277 56.4967H19.2203L17.6998 65.005H16.2039L14.3685 58.9361H14.3488L13.2662 65.005H11.8737L13.3942 56.4967H14.9688L16.7501 62.4224H16.7698L17.8277 56.4967Z" fill="#231F20"/>
    <path d="M26.129 65.005H24.6331L25.8829 57.9979H23.7227L23.9934 56.4918H29.8146L29.5439 57.9979H27.3838L26.1339 65.005H26.129Z" fill="#231F20"/>
    <path d="M40.6401 58.0028H36.8463L36.5264 59.7904H40.0152L39.7446 61.2965H36.2558L35.8621 63.4989H39.8282L39.5576 65.005H34.1251L35.6456 56.4967H40.9059L40.6352 58.0028H40.6401Z" fill="#231F20"/>
    <path d="M46.8452 56.4967H50.4619C52.3662 56.4967 52.4154 58.1658 52.2826 58.9016C52.1153 59.8398 51.574 60.6447 50.8162 60.9262C51.3476 61.2323 51.6232 61.4941 51.3378 63.0841C51.1164 64.3285 51.0622 64.6347 51.3525 64.7779L51.3132 65.005H49.6598C49.6303 64.6001 49.65 64.1656 49.8074 63.2866C50.0141 62.1261 50.0338 61.6768 48.9316 61.6768H47.3865L46.791 65.005H45.3247L46.8452 56.4967ZM49.3941 60.2447C50.1716 60.2447 50.6046 59.9237 50.7571 59.0843C50.8359 58.6349 50.7867 57.9683 49.9108 57.9683H48.0458L47.6374 60.2447H49.3892H49.3941Z" fill="#231F20"/>
    <path d="M58.9648 65.005H57.4689L58.9894 56.4967H62.2568C63.6395 56.4967 64.289 57.5535 63.9938 59.2225C63.856 59.9929 63.1524 61.9385 61.2284 61.9385H59.5159L58.9697 65.01L58.9648 65.005ZM61.1595 60.4669C62.2765 60.4669 62.4438 59.5188 62.5127 59.1386C62.6603 58.309 62.3355 57.9633 61.4055 57.9633H60.2196L59.7718 60.462H61.1545L61.1595 60.4669Z" fill="#231F20"/>
    <path d="M69.5886 56.4967H73.2054C75.1097 56.4967 75.1589 58.1658 75.026 58.9016C74.8587 59.8398 74.3174 60.6447 73.5597 60.9262C74.0911 61.2323 74.3667 61.4941 74.0813 63.0841C73.8598 64.3285 73.8057 64.6347 74.096 64.7779L74.0566 65.005H72.4033C72.3738 64.6001 72.3934 64.1656 72.5509 63.2866C72.7576 62.1261 72.7773 61.6768 71.675 61.6768H70.1299L69.5345 65.005H68.0681L69.5886 56.4967ZM72.1376 60.2447C72.915 60.2447 73.3481 59.9237 73.5006 59.0843C73.5793 58.6349 73.5301 57.9683 72.6542 57.9683H70.7893L70.3809 60.2447H72.1326H72.1376Z" fill="#231F20"/>
    <path d="M81.5903 65.005H80.0944L81.6149 56.4967H83.1107L81.5903 65.005Z" fill="#231F20"/>
    <path d="M89.8669 62.3878C89.7931 62.8619 89.8324 63.7606 91.1364 63.7606C91.845 63.7606 92.6668 63.5582 92.8291 62.6594C92.9472 61.9977 92.4404 61.815 91.722 61.6027L90.9937 61.3904C89.8964 61.0694 88.8335 60.7632 89.1681 58.8917C89.3354 57.9436 90.0637 56.2745 92.3863 56.2745C94.576 56.2745 94.8614 57.9831 94.6843 59.025H93.2474C93.2769 58.6448 93.3163 57.746 92.0123 57.746C91.4464 57.746 90.7231 57.9929 90.5853 58.7633C90.4672 59.425 90.9002 59.5682 91.1856 59.6521L92.839 60.1608C93.7641 60.4472 94.576 60.9212 94.3054 62.4471C93.8477 65.005 91.6137 65.2322 90.9888 65.2322C88.3759 65.2322 88.248 63.4446 88.4399 62.3878H89.8767H89.8669Z" fill="#231F20"/>
    <path d="M105.446 58.0028H101.652L101.332 59.7904H104.821L104.55 61.2965H101.062L100.668 63.4989H104.634L104.363 65.005H98.9309L100.451 56.4967H105.712L105.441 58.0028H105.446Z" fill="#231F20"/>
    <path d="M111.267 62.3878C111.193 62.8619 111.233 63.7606 112.537 63.7606C113.245 63.7606 114.067 63.5582 114.229 62.6594C114.347 61.9977 113.841 61.815 113.122 61.6027L112.394 61.3904C111.297 61.0694 110.234 60.7632 110.568 58.8917C110.736 57.9436 111.464 56.2745 113.787 56.2745C115.976 56.2745 116.262 57.9831 116.085 59.025H114.648C114.677 58.6448 114.717 57.746 113.413 57.746C112.847 57.746 112.123 57.9929 111.986 58.7633C111.867 59.425 112.3 59.5682 112.586 59.6521L114.239 60.1608C115.164 60.4472 115.976 60.9212 115.706 62.4471C115.248 65.005 113.014 65.2322 112.389 65.2322C109.781 65.2322 109.648 63.4446 109.84 62.3878H111.277H111.267Z" fill="#231F20"/>
    <path d="M121.748 64.768C121.487 66.2248 120.754 66.7581 119.864 66.9951H119.854L119.967 66.368C120.375 66.2149 120.818 66.0025 121.05 65.005H120.213L120.523 63.2767H122.019L121.753 64.768H121.748Z" fill="#231F20"/>
    <path d="M130.177 65.005H128.682L130.202 56.4967H131.698L130.177 65.005Z" fill="#231F20"/>
    <path d="M140.811 56.4967H142.204L140.683 65.005H139.187L137.352 58.9361H137.332L136.25 65.005H134.857L136.377 56.4967H137.952L139.733 62.4224H139.753L140.811 56.4967Z" fill="#231F20"/>
    <path d="M149.668 59.2818C149.639 58.7731 149.585 57.8102 148.345 57.8102C147.626 57.8102 146.47 58.3781 146.042 60.7829C145.771 62.3138 146.032 63.6865 147.297 63.6865C148.123 63.6865 148.802 63.1285 149.166 62.0866H150.662C150.032 63.9335 148.788 65.2272 146.991 65.2272C145.087 65.2272 143.995 63.6964 144.521 60.7583C145.053 57.7855 146.77 56.2646 148.61 56.2646C150.751 56.2646 151.307 58.0176 151.159 59.2768H149.663L149.668 59.2818Z" fill="#231F20"/>
    <path d="M0.0836487 52.5363V50.3537H212.496L157.384 8.34043V0.809847H164.15L216.924 52.5363C216.924 52.5363 0.142697 52.6005 0.0836487 52.5363Z" fill="#231F20"/>
    <path d="M167.836 0.686394H211.261V44.265" fill="#C83293"/>
    <path d="M206.586 47.4748H157.502V11.9206" fill="#C83293"/>
    <path d="M211.138 55.0054H157.379V64.8816H211.138V55.0054Z" fill="#C83293"/>
    <path d="M212.535 4.4986C212.535 2.3851 214.208 0.661705 216.28 0.661705C218.351 0.661705 220.005 2.39004 220.005 4.4986C220.005 6.60716 218.342 8.36019 216.28 8.36019C214.218 8.36019 212.535 6.63185 212.535 4.4986ZM219.409 4.4986C219.409 2.632 218.091 1.16539 216.275 1.16539C214.459 1.16539 213.121 2.62706 213.121 4.4986C213.121 6.37014 214.449 7.85156 216.275 7.85156C218.1 7.85156 219.409 6.38989 219.409 4.4986ZM218.14 6.65161H217.53L216.339 4.67143H215.404V6.65161H214.892V2.35547H216.713C217.815 2.35547 218.189 2.78015 218.189 3.49123C218.189 4.33564 217.618 4.64674 216.88 4.67143L218.14 6.65161ZM216.177 4.25663C216.767 4.25663 217.633 4.36033 217.633 3.48629C217.633 2.81471 217.102 2.7357 216.59 2.7357H215.399V4.25663H216.177Z" fill="#231F20"/>
  </g>
  <defs>
    <clipPath id="somero-logo-clip">
      <rect width="220" height="67" fill="white"/>
    </clipPath>
  </defs>
</svg>
