<svg preserveAspectRatio="none" width="100%" height="100%" overflow="visible" style="display: block;" viewBox="0 0 23.833 15.615" fill="none" xmlns="http://www.w3.org/2000/svg">
<g id="Group 1">
<path id="Vector" d="M23.833 1.201H0V0.411003C0 0.184003 0.184003 0 0.411003 0H23.422C23.649 0 23.833 0.184003 23.833 0.411003V1.201ZM0 4.805H23.833V6.006H0V4.805ZM0 2.402H23.833V3.603H0V2.402ZM23.833 8.408H0.411003C0.184003 8.408 0 8.224 0 7.997V7.207H23.833V8.408ZM0 12.012H23.833V13.213H0V12.012ZM23.422 15.615H0.411003C0.184003 15.615 0 15.431 0 15.204V14.414H23.833V15.204C23.833 15.431 23.649 15.615 23.422 15.615ZM0 9.61H23.833V10.811H0V9.61Z" fill="var(--fill-0, #FF4B55)"/>
<path id="Vector_2" d="M10.684 0H0.411003C0.184003 0 0 0.184003 0 0.411003V7.997C0 8.224 0.184003 8.408 0.411003 8.408H10.684C10.911 8.408 11.095 8.224 11.095 7.997V0.411003C11.095 0.184003 10.911 0 10.684 0Z" fill="var(--fill-0, #41479B)"/>
<path id="Vector_3" d="M1.15385 0.942998L1.24486 1.216L1.53286 1.218C1.56986 1.218 1.58585 1.266 1.55585 1.288L1.32486 1.459L1.41186 1.733C1.42286 1.768 1.38286 1.798 1.35286 1.776L1.11886 1.609L0.884856 1.776C0.854856 1.798 0.813858 1.768 0.825858 1.733L0.912856 1.459L0.681853 1.288C0.664853 1.275 0.661857 1.25 0.674857 1.233C0.681857 1.224 0.692855 1.218 0.704855 1.218L0.992857 1.216L1.08385 0.942998C1.09185 0.907998 1.14185 0.907998 1.15385 0.942998ZM1.15385 2.37L1.24486 2.64299L1.53286 2.64499C1.56986 2.64499 1.58585 2.69299 1.55585 2.71499L1.32486 2.886L1.41186 3.15999C1.42286 3.19499 1.38286 3.225 1.35286 3.203L1.11886 3.036L0.884856 3.203C0.854856 3.225 0.813858 3.19499 0.825858 3.15999L0.912856 2.886L0.681853 2.71499C0.664853 2.70199 0.661857 2.67699 0.674857 2.65999C0.681857 2.65099 0.692855 2.64499 0.704855 2.64499L0.992857 2.64299L1.08385 2.37C1.09185 2.335 1.14185 2.335 1.15385 2.37ZM1.15385 3.79699L1.24486 4.07L1.53286 4.072C1.56986 4.072 1.58585 4.12 1.55585 4.142L1.32486 4.31299L1.41186 4.587C1.42286 4.622 1.38286 4.65199 1.35286 4.62999L1.11886 4.46299L0.884856 4.62999C0.854856 4.65199 0.813858 4.622 0.825858 4.587L0.912856 4.31299L0.681853 4.142C0.664853 4.129 0.661857 4.104 0.674857 4.087C0.681857 4.078 0.692855 4.072 0.704855 4.072L0.992857 4.07L1.08385 3.79699C1.09185 3.76199 1.14185 3.76199 1.15385 3.79699ZM1.15385 5.224L1.24486 5.497L1.53286 5.499C1.56986 5.499 1.58585 5.547 1.55585 5.569L1.32486 5.74L1.41186 6.014C1.42286 6.049 1.38286 6.079 1.35286 6.057L1.11886 5.89L0.884856 6.057C0.854856 6.079 0.813858 6.049 0.825858 6.014L0.912856 5.74L0.681853 5.569C0.664853 5.556 0.661857 5.531 0.674857 5.514C0.681857 5.505 0.692855 5.499 0.704855 5.499L0.992857 5.497L1.08385 5.224C1.09185 5.189 1.14185 5.189 1.15385 5.224ZM1.15385 6.651L1.24486 6.92399L1.53286 6.926C1.56986 6.926 1.58585 6.974 1.55585 6.996L1.32486 7.167L1.41186 7.441C1.42286 7.476 1.38286 7.506 1.35286 7.484L1.11886 7.317L0.882857 7.484C0.852857 7.506 0.811859 7.476 0.823859 7.441L0.910857 7.167L0.679854 6.996C0.662854 6.983 0.659858 6.958 0.672858 6.941C0.679858 6.932 0.690857 6.926 0.702857 6.926L0.990859 6.92399L1.08185 6.651C1.09185 6.616 1.14185 6.616 1.15385 6.651ZM2.26086 1.64299L2.35186 1.916L2.63985 1.918C2.67685 1.918 2.69286 1.966 2.66286 1.988L2.43185 2.15899L2.51886 2.433C2.52986 2.468 2.48985 2.498 2.45985 2.476L2.22585 2.309L1.99186 2.476C1.96186 2.498 1.92085 2.468 1.93285 2.433L2.01986 2.15899L1.78886 1.988C1.77186 1.975 1.76885 1.95 1.78185 1.933C1.78885 1.924 1.79986 1.918 1.81186 1.918L2.09985 1.916L2.19086 1.64299C2.19986 1.60799 2.24986 1.60799 2.26086 1.64299ZM2.26086 3.07L2.35186 3.343L2.63985 3.345C2.67685 3.345 2.69286 3.393 2.66286 3.415L2.43185 3.586L2.51886 3.86C2.52986 3.895 2.48985 3.925 2.45985 3.903L2.22585 3.736L1.99186 3.903C1.96186 3.925 1.92085 3.895 1.93285 3.86L2.01986 3.586L1.78886 3.415C1.77186 3.402 1.76885 3.377 1.78185 3.36C1.78885 3.351 1.79986 3.345 1.81186 3.345L2.09985 3.343L2.19086 3.07C2.19986 3.035 2.24986 3.035 2.26086 3.07ZM2.26086 4.497L2.35186 4.76999L2.63985 4.772C2.67685 4.772 2.69286 4.82 2.66286 4.842L2.43185 5.013L2.51886 5.287C2.52986 5.322 2.48985 5.352 2.45985 5.33L2.22585 5.163L1.99186 5.33C1.96186 5.352 1.92085 5.322 1.93285 5.287L2.01986 5.013L1.78886 4.842C1.77186 4.829 1.76885 4.804 1.78185 4.787C1.78885 4.778 1.79986 4.772 1.81186 4.772L2.09985 4.76999L2.19086 4.497C2.19986 4.462 2.24986 4.462 2.26086 4.497ZM2.26086 5.92399L2.35186 6.197L2.63985 6.19899C2.67685 6.19899 2.69286 6.24699 2.66286 6.26899L2.43185 6.44L2.51886 6.71399C2.52986 6.74899 2.48985 6.77899 2.45985 6.75699L2.22585 6.58999L1.99186 6.75699C1.96186 6.77899 1.92085 6.74899 1.93285 6.71399L2.01986 6.44L1.78886 6.26899C1.77186 6.25599 1.76885 6.23099 1.78185 6.21399C1.78885 6.20499 1.79986 6.19899 1.81186 6.19899L2.09985 6.197L2.19086 5.92399C2.19986 5.88899 2.24986 5.88899 2.26086 5.92399ZM3.36886 0.942998L3.45985 1.216L3.74785 1.218C3.78485 1.218 3.80086 1.266 3.77086 1.288L3.53985 1.459L3.62685 1.733C3.63785 1.768 3.59785 1.798 3.56785 1.776L3.33385 1.609L3.09985 1.776C3.06985 1.798 3.02885 1.768 3.04085 1.733L3.12785 1.459L2.89686 1.288C2.87986 1.275 2.87685 1.25 2.88985 1.233C2.89685 1.224 2.90785 1.218 2.91985 1.218L3.20785 1.216L3.29886 0.942998C3.30686 0.907998 3.35686 0.907998 3.36886 0.942998ZM3.36886 2.37L3.45985 2.64299L3.74785 2.64499C3.78485 2.64499 3.80086 2.69299 3.77086 2.71499L3.53985 2.886L3.62685 3.15999C3.63785 3.19499 3.59785 3.225 3.56785 3.203L3.33385 3.036L3.09985 3.203C3.06985 3.225 3.02885 3.19499 3.04085 3.15999L3.12785 2.886L2.89686 2.71499C2.87986 2.70199 2.87685 2.67699 2.88985 2.65999C2.89685 2.65099 2.90785 2.64499 2.91985 2.64499L3.20785 2.64299L3.29886 2.37C3.30686 2.335 3.35686 2.335 3.36886 2.37ZM3.36886 3.79699L3.45985 4.07L3.74785 4.072C3.78485 4.072 3.80086 4.12 3.77086 4.142L3.53985 4.31299L3.62685 4.587C3.63785 4.622 3.59785 4.65199 3.56785 4.62999L3.33385 4.46299L3.09985 4.62999C3.06985 4.65199 3.02885 4.622 3.04085 4.587L3.12785 4.31299L2.89686 4.142C2.87986 4.129 2.87685 4.104 2.88985 4.087C2.89685 4.078 2.90785 4.072 2.91985 4.072L3.20785 4.07L3.29886 3.79699C3.30686 3.76199 3.35686 3.76199 3.36886 3.79699ZM3.36886 5.224L3.45985 5.497L3.74785 5.499C3.78485 5.499 3.80086 5.547 3.77086 5.569L3.53985 5.74L3.62685 6.014C3.63785 6.049 3.59785 6.079 3.56785 6.057L3.33385 5.89L3.09985 6.057C3.06985 6.079 3.02885 6.049 3.04085 6.014L3.12785 5.74L2.89686 5.569C2.87986 5.556 2.87685 5.531 2.88985 5.514C2.89685 5.505 2.90785 5.499 2.91985 5.499L3.20785 5.497L3.29886 5.224C3.30686 5.189 3.35686 5.189 3.36886 5.224ZM3.36886 6.651L3.45985 6.92399L3.74785 6.926C3.78485 6.926 3.80086 6.974 3.77086 6.996L3.53985 7.167L3.62685 7.441C3.63785 7.476 3.59785 7.506 3.56785 7.484L3.33385 7.317L3.09785 7.484C3.06785 7.506 3.02686 7.476 3.03886 7.441L3.12585 7.167L2.89486 6.996C2.87786 6.983 2.87485 6.958 2.88785 6.941C2.89485 6.932 2.90585 6.926 2.91785 6.926L3.20585 6.92399L3.29686 6.651C3.30686 6.616 3.35686 6.616 3.36886 6.651ZM4.47686 1.64299L4.56785 1.916L4.85586 1.918C4.89286 1.918 4.90885 1.966 4.87885 1.988L4.64786 2.15899L4.73485 2.433C4.74585 2.468 4.70586 2.498 4.67586 2.476L4.44185 2.309L4.20785 2.476C4.17785 2.498 4.13686 2.468 4.14886 2.433L4.23585 2.15899L4.00486 1.988C3.98786 1.975 3.98485 1.95 3.99785 1.933C4.00485 1.924 4.01585 1.918 4.02785 1.918L4.31586 1.916L4.40685 1.64299C4.41485 1.60799 4.46486 1.60799 4.47686 1.64299ZM4.47686 3.07L4.56785 3.343L4.85586 3.345C4.89286 3.345 4.90885 3.393 4.87885 3.415L4.64786 3.586L4.73485 3.86C4.74585 3.895 4.70586 3.925 4.67586 3.903L4.44185 3.736L4.20785 3.903C4.17785 3.925 4.13686 3.895 4.14886 3.86L4.23585 3.586L4.00486 3.415C3.98786 3.402 3.98485 3.377 3.99785 3.36C4.00485 3.351 4.01585 3.345 4.02785 3.345L4.31586 3.343L4.40685 3.07C4.41485 3.035 4.46486 3.035 4.47686 3.07ZM4.47686 4.497L4.56785 4.76999L4.85586 4.772C4.89286 4.772 4.90885 4.82 4.87885 4.842L4.64786 5.013L4.73485 5.287C4.74585 5.322 4.70586 5.352 4.67586 5.33L4.44185 5.163L4.20785 5.33C4.17785 5.352 4.13686 5.322 4.14886 5.287L4.23585 5.013L4.00486 4.842C3.98786 4.829 3.98485 4.804 3.99785 4.787C4.00485 4.778 4.01585 4.772 4.02785 4.772L4.31586 4.76999L4.40685 4.497C4.41485 4.462 4.46486 4.462 4.47686 4.497ZM4.47686 5.92399L4.56785 6.197L4.85586 6.19899C4.89286 6.19899 4.90885 6.24699 4.87885 6.26899L4.64786 6.44L4.73485 6.71399C4.74585 6.74899 4.70586 6.77899 4.67586 6.75699L4.44185 6.58999L4.20785 6.75699C4.17785 6.77899 4.13686 6.74899 4.14886 6.71399L4.23585 6.44L4.00486 6.26899C3.98786 6.25599 3.98485 6.23099 3.99785 6.21399C4.00485 6.20499 4.01585 6.19899 4.02785 6.19899L4.31586 6.197L4.40285 5.92399C4.41085 5.90399 4.43486 5.894 4.45486 5.902C4.46486 5.906 4.47286 5.91399 4.47686 5.92399ZM5.58385 0.942998L5.67486 1.216L5.96286 1.218C5.99986 1.218 6.01585 1.266 5.98585 1.288L5.75486 1.459L5.84186 1.733C5.85286 1.768 5.81286 1.798 5.78286 1.776L5.54886 1.609L5.31486 1.776C5.28486 1.798 5.24386 1.768 5.25586 1.733L5.34286 1.459L5.11185 1.288C5.09485 1.275 5.09186 1.25 5.10486 1.233C5.11186 1.224 5.12286 1.218 5.13486 1.218L5.42286 1.216L5.51385 0.942998C5.52185 0.907998 5.57185 0.907998 5.58385 0.942998ZM5.58385 2.37L5.67486 2.64299L5.96286 2.64499C5.99986 2.64499 6.01585 2.69299 5.98585 2.71499L5.75486 2.886L5.84186 3.15999C5.85286 3.19499 5.81286 3.225 5.78286 3.203L5.54886 3.036L5.31486 3.203C5.28486 3.225 5.24386 3.19499 5.25586 3.15999L5.34286 2.886L5.11185 2.71499C5.09485 2.70199 5.09186 2.67699 5.10486 2.65999C5.11186 2.65099 5.12286 2.64499 5.13486 2.64499L5.42286 2.64299L5.51385 2.37C5.52185 2.335 5.57185 2.335 5.58385 2.37ZM5.58385 3.79699L5.67486 4.07L5.96286 4.072C5.99986 4.072 6.01585 4.12 5.98585 4.142L5.75486 4.31299L5.84186 4.587C5.85286 4.622 5.81286 4.65199 5.78286 4.62999L5.54886 4.46299L5.31486 4.62999C5.28486 4.65199 5.24386 4.622 5.25586 4.587L5.34286 4.31299L5.11185 4.142C5.09485 4.129 5.09186 4.104 5.10486 4.087C5.11186 4.078 5.12286 4.072 5.13486 4.072L5.42286 4.07L5.51385 3.79699C5.52185 3.76199 5.57185 3.76199 5.58385 3.79699ZM5.58385 5.224L5.67486 5.497L5.96286 5.499C5.99986 5.499 6.01585 5.547 5.98585 5.569L5.75486 5.74L5.84186 6.014C5.85286 6.049 5.81286 6.079 5.78286 6.057L5.54886 5.89L5.31486 6.057C5.28486 6.079 5.24386 6.049 5.25586 6.014L5.34286 5.74L5.11185 5.569C5.09485 5.556 5.09186 5.531 5.10486 5.514C5.11186 5.505 5.12286 5.499 5.13486 5.499L5.42286 5.497L5.51385 5.224C5.52185 5.189 5.57185 5.189 5.58385 5.224ZM5.58385 6.651L5.67486 6.92399L5.96286 6.926C5.99986 6.926 6.01585 6.974 5.98585 6.996L5.75486 7.167L5.84186 7.441C5.85286 7.476 5.81286 7.506 5.78286 7.484L5.54886 7.317L5.31286 7.484C5.28286 7.506 5.24185 7.476 5.25385 7.441L5.34086 7.167L5.10985 6.996C5.09285 6.983 5.08986 6.958 5.10286 6.941C5.10986 6.932 5.12086 6.926 5.13286 6.926L5.42085 6.92399L5.51185 6.651C5.52185 6.616 5.57185 6.616 5.58385 6.651ZM6.69185 1.64299L6.78286 1.916L7.07085 1.918C7.10785 1.918 7.12386 1.966 7.09386 1.988L6.86285 2.15899L6.94986 2.433C6.96086 2.468 6.92085 2.498 6.89085 2.476L6.65685 2.309L6.42286 2.476C6.39286 2.498 6.35185 2.468 6.36385 2.433L6.45086 2.15899L6.21985 1.988C6.20285 1.975 6.19986 1.95 6.21286 1.933C6.21986 1.924 6.23086 1.918 6.24286 1.918L6.53085 1.916L6.62186 1.64299C6.62986 1.60799 6.67985 1.60799 6.69185 1.64299ZM6.69185 3.07L6.78286 3.343L7.07085 3.345C7.10785 3.345 7.12386 3.393 7.09386 3.415L6.86285 3.586L6.94986 3.86C6.96086 3.895 6.92085 3.925 6.89085 3.903L6.65685 3.736L6.42286 3.903C6.39286 3.925 6.35185 3.895 6.36385 3.86L6.45086 3.586L6.21985 3.415C6.20285 3.402 6.19986 3.377 6.21286 3.36C6.21986 3.351 6.23086 3.345 6.24286 3.345L6.53085 3.343L6.62186 3.07C6.62986 3.035 6.67985 3.035 6.69185 3.07ZM6.69185 4.497L6.78286 4.76999L7.07085 4.772C7.10785 4.772 7.12386 4.82 7.09386 4.842L6.86285 5.013L6.94986 5.287C6.96086 5.322 6.92085 5.352 6.89085 5.33L6.65685 5.163L6.42286 5.33C6.39286 5.352 6.35185 5.322 6.36385 5.287L6.45086 5.013L6.21985 4.842C6.20285 4.829 6.19986 4.804 6.21286 4.787C6.21986 4.778 6.23086 4.772 6.24286 4.772L6.53085 4.76999L6.62186 4.497C6.62986 4.462 6.67985 4.462 6.69185 4.497ZM6.69185 5.92399L6.78286 6.197L7.07085 6.19899C7.10785 6.19899 7.12386 6.24699 7.09386 6.26899L6.86285 6.44L6.94986 6.71399C6.96086 6.74899 6.92085 6.77899 6.89085 6.75699L6.65685 6.58999L6.42286 6.75699C6.39286 6.77899 6.35185 6.74899 6.36385 6.71399L6.45086 6.44L6.21985 6.26899C6.20285 6.25599 6.19986 6.23099 6.21286 6.21399C6.21986 6.20499 6.23086 6.19899 6.24286 6.19899L6.53085 6.197L6.62186 5.92399C6.62986 5.88899 6.67985 5.88899 6.69185 5.92399ZM7.79886 0.942998L7.88985 1.216L8.17786 1.218C8.21486 1.218 8.23086 1.266 8.20086 1.288L7.96985 1.459L8.05685 1.733C8.06785 1.768 8.02785 1.798 7.99785 1.776L7.76385 1.609L7.52985 1.776C7.49985 1.798 7.45885 1.768 7.47085 1.733L7.55785 1.459L7.32686 1.288C7.30986 1.275 7.30685 1.25 7.31985 1.233C7.32685 1.224 7.33785 1.218 7.34985 1.218L7.63785 1.216L7.72886 0.942998C7.73686 0.907998 7.78686 0.907998 7.79886 0.942998ZM7.79886 2.37L7.88985 2.64299L8.17786 2.64499C8.21486 2.64499 8.23086 2.69299 8.20086 2.71499L7.96985 2.886L8.05685 3.15999C8.06785 3.19499 8.02785 3.225 7.99785 3.203L7.76385 3.036L7.52985 3.203C7.49985 3.225 7.45885 3.19499 7.47085 3.15999L7.55785 2.886L7.32686 2.71499C7.30986 2.70199 7.30685 2.67699 7.31985 2.65999C7.32685 2.65099 7.33785 2.64499 7.34985 2.64499L7.63785 2.64299L7.72886 2.37C7.73686 2.335 7.78686 2.335 7.79886 2.37ZM7.79886 3.79699L7.88985 4.07L8.17786 4.072C8.21486 4.072 8.23086 4.12 8.20086 4.142L7.96985 4.31299L8.05685 4.587C8.06785 4.622 8.02785 4.65199 7.99785 4.62999L7.76385 4.46299L7.52985 4.62999C7.49985 4.65199 7.45885 4.622 7.47085 4.587L7.55785 4.31299L7.32686 4.142C7.30986 4.129 7.30685 4.104 7.31985 4.087C7.32685 4.078 7.33785 4.072 7.34985 4.072L7.63785 4.07L7.72886 3.79699C7.73686 3.76199 7.78686 3.76199 7.79886 3.79699ZM7.79886 5.224L7.88985 5.497L8.17786 5.499C8.21486 5.499 8.23086 5.547 8.20086 5.569L7.96985 5.74L8.05685 6.014C8.06785 6.049 8.02785 6.079 7.99785 6.057L7.76385 5.89L7.52985 6.057C7.49985 6.079 7.45885 6.049 7.47085 6.014L7.55785 5.74L7.32686 5.569C7.30986 5.556 7.30685 5.531 7.31985 5.514C7.32685 5.505 7.33785 5.499 7.34985 5.499L7.63785 5.497L7.72886 5.224C7.73686 5.189 7.78686 5.189 7.79886 5.224ZM7.79886 6.651L7.88985 6.92399L8.17786 6.926C8.21486 6.926 8.23086 6.974 8.20086 6.996L7.96985 7.167L8.05685 7.441C8.06785 7.476 8.02785 7.506 7.99785 7.484L7.76385 7.317L7.52885 7.484C7.49885 7.506 7.45785 7.476 7.46985 7.441L7.55685 7.167L7.32586 6.996C7.30886 6.983 7.30585 6.958 7.31885 6.941C7.32585 6.932 7.33685 6.926 7.34885 6.926L7.63685 6.92399L7.72786 6.651C7.73686 6.616 7.78686 6.616 7.79886 6.651ZM8.90685 1.64299L8.99785 1.916L9.28586 1.918C9.32286 1.918 9.33885 1.966 9.30885 1.988L9.07786 2.15899L9.16485 2.433C9.17585 2.468 9.13586 2.498 9.10586 2.476L8.87185 2.309L8.63785 2.476C8.60785 2.498 8.56686 2.468 8.57886 2.433L8.66585 2.15899L8.43486 1.988C8.41786 1.975 8.41486 1.95 8.42786 1.933C8.43486 1.924 8.44585 1.918 8.45785 1.918L8.74586 1.916L8.83685 1.64299C8.84485 1.60799 8.89485 1.60799 8.90685 1.64299ZM8.90685 3.07L8.99785 3.343L9.28586 3.345C9.32286 3.345 9.33885 3.393 9.30885 3.415L9.07786 3.586L9.16485 3.86C9.17585 3.895 9.13586 3.925 9.10586 3.903L8.87185 3.736L8.63785 3.903C8.60785 3.925 8.56686 3.895 8.57886 3.86L8.66585 3.586L8.43486 3.415C8.41786 3.402 8.41486 3.377 8.42786 3.36C8.43486 3.351 8.44585 3.345 8.45785 3.345L8.74586 3.343L8.83685 3.07C8.84485 3.035 8.89485 3.035 8.90685 3.07ZM8.90685 4.497L8.99785 4.76999L9.28586 4.772C9.32286 4.772 9.33885 4.82 9.30885 4.842L9.07786 5.013L9.16485 5.287C9.17585 5.322 9.13586 5.352 9.10586 5.33L8.87185 5.163L8.63785 5.33C8.60785 5.352 8.56686 5.322 8.57886 5.287L8.66585 5.013L8.43486 4.842C8.41786 4.829 8.41486 4.804 8.42786 4.787C8.43486 4.778 8.44585 4.772 8.45785 4.772L8.74586 4.76999L8.83685 4.497C8.84485 4.462 8.89485 4.462 8.90685 4.497ZM8.90685 5.92399L8.99785 6.197L9.28586 6.19899C9.32286 6.19899 9.33885 6.24699 9.30885 6.26899L9.07786 6.44L9.16485 6.71399C9.17585 6.74899 9.13586 6.77899 9.10586 6.75699L8.87185 6.58999L8.63785 6.75699C8.60785 6.77899 8.56686 6.74899 8.57886 6.71399L8.66585 6.44L8.43486 6.26899C8.41786 6.25599 8.41486 6.23099 8.42786 6.21399C8.43486 6.20499 8.44585 6.19899 8.45785 6.19899L8.74586 6.197L8.83685 5.92399C8.84485 5.88899 8.89485 5.88899 8.90685 5.92399ZM10.0139 0.942998L10.1049 1.216L10.3929 1.218C10.4299 1.218 10.4459 1.266 10.4159 1.288L10.1849 1.459L10.2719 1.733C10.2829 1.768 10.2429 1.798 10.2129 1.776L9.97886 1.609L9.74486 1.776C9.71486 1.798 9.67386 1.768 9.68586 1.733L9.77286 1.459L9.54185 1.288C9.52485 1.275 9.52186 1.25 9.53486 1.233C9.54186 1.224 9.55286 1.218 9.56486 1.218L9.85286 1.216L9.94385 0.942998C9.95285 0.907998 10.0029 0.907998 10.0139 0.942998ZM10.0139 2.37L10.1049 2.64299L10.3929 2.64499C10.4299 2.64499 10.4459 2.69299 10.4159 2.71499L10.1849 2.886L10.2719 3.15999C10.2829 3.19499 10.2429 3.225 10.2129 3.203L9.97886 3.036L9.74486 3.203C9.71486 3.225 9.67386 3.19499 9.68586 3.15999L9.77286 2.886L9.54185 2.71499C9.52485 2.70199 9.52186 2.67699 9.53486 2.65999C9.54186 2.65099 9.55286 2.64499 9.56486 2.64499L9.85286 2.64299L9.94385 2.37C9.95285 2.335 10.0029 2.335 10.0139 2.37ZM10.0139 3.79699L10.1049 4.07L10.3929 4.072C10.4299 4.072 10.4459 4.12 10.4159 4.142L10.1849 4.31299L10.2719 4.587C10.2829 4.622 10.2429 4.65199 10.2129 4.62999L9.97886 4.46299L9.74486 4.62999C9.71486 4.65199 9.67386 4.622 9.68586 4.587L9.77286 4.31299L9.54185 4.142C9.52485 4.129 9.52186 4.104 9.53486 4.087C9.54186 4.078 9.55286 4.072 9.56486 4.072L9.85286 4.07L9.94385 3.79699C9.95285 3.76199 10.0029 3.76199 10.0139 3.79699ZM10.0139 5.224L10.1049 5.497L10.3929 5.499C10.4299 5.499 10.4459 5.547 10.4159 5.569L10.1849 5.74L10.2719 6.014C10.2829 6.049 10.2429 6.079 10.2129 6.057L9.97886 5.89L9.74486 6.057C9.71486 6.079 9.67386 6.049 9.68586 6.014L9.77286 5.74L9.54185 5.569C9.52485 5.556 9.52186 5.531 9.53486 5.514C9.54186 5.505 9.55286 5.499 9.56486 5.499L9.85286 5.497L9.94385 5.224C9.95285 5.189 10.0029 5.189 10.0139 5.224ZM10.0139 6.651L10.1049 6.92399L10.3929 6.926C10.4299 6.926 10.4459 6.974 10.4159 6.996L10.1849 7.167L10.2719 7.441C10.2829 7.476 10.2429 7.506 10.2129 7.484L9.97886 7.317L9.74386 7.484C9.71386 7.506 9.67286 7.476 9.68486 7.441L9.77186 7.167L9.54085 6.996C9.52385 6.983 9.52086 6.958 9.53386 6.941C9.54086 6.932 9.55186 6.926 9.56386 6.926L9.85186 6.92399L9.94285 6.651C9.95285 6.616 10.0029 6.616 10.0139 6.651Z" fill="var(--fill-0, #F5F5F5)"/>
</g>
</svg>
