<svg preserveAspectRatio="none" width="100%" height="100%" overflow="visible" style="display: block;" viewBox="0 0 22 22" fill="none" xmlns="http://www.w3.org/2000/svg">
<g id="tabler-icon-user">
<path id="Vector" d="M5 21V18.8889C5 17.7691 5.42143 16.6951 6.17157 15.9033C6.92172 15.1115 7.93913 14.6667 9 14.6667H13C14.0609 14.6667 15.0783 15.1115 15.8284 15.9033C16.5786 16.6951 17 17.7691 17 18.8889V21M7 6.22222C7 7.34203 7.42143 8.41596 8.17157 9.20778C8.92172 9.9996 9.93913 10.4444 11 10.4444C12.0609 10.4444 13.0783 9.9996 13.8284 9.20778C14.5786 8.41596 15 7.34203 15 6.22222C15 5.10242 14.5786 4.02848 13.8284 3.23666C13.0783 2.44484 12.0609 2 11 2C9.93913 2 8.92172 2.44484 8.17157 3.23666C7.42143 4.02848 7 5.10242 7 6.22222Z" stroke="var(--stroke-0, #231F20)" stroke-width="2" stroke-linecap="round" stroke-linejoin="round"/>
</g>
</svg>
